<svg width="18" height="17" viewBox="0 0 18 17" fill="none" xmlns="http://www.w3.org/2000/svg">
<path d="M14.1464 16.9942C14.1464 16.8006 14.1477 16.6301 14.1464 16.4596C14.1341 14.4148 14.1218 12.3688 14.1083 10.3241C14.1083 10.2388 14.0984 10.1524 14.0849 10.0683C13.8879 8.84681 13.1678 8.21718 12.0428 8.28417C10.9768 8.34749 10.1003 9.25845 10.0917 10.3691C10.0757 12.4273 10.0856 14.4855 10.0856 16.5424C10.0856 16.6873 10.0856 16.8311 10.0856 16.9991C8.798 16.9991 7.54121 16.9991 6.25488 16.9991C6.25488 13.1982 6.25488 9.39728 6.25488 5.57079C7.51536 5.57079 8.77215 5.57079 10.0782 5.57079C10.0782 6.05062 10.0782 6.54264 10.0782 7.08458C10.1594 7.0176 10.1914 7.00055 10.2099 6.97497C11.3288 5.39786 12.8909 5.01301 14.6954 5.40273C16.4864 5.79 17.433 7.01516 17.8072 8.71528C17.9279 9.26088 17.9808 9.83084 17.9869 10.3898C18.0079 12.4967 17.9968 14.6036 17.9968 16.7105C17.9968 16.7957 17.9845 16.8798 17.9759 16.993C16.7142 16.9942 15.4598 16.9942 14.1464 16.9942Z" fill="white" fill-opacity="0.55"/>
<path d="M4.06239 16.9996C2.79206 16.9996 1.5365 16.9996 0.258789 16.9996C0.258789 13.1841 0.258789 9.39169 0.258789 5.57129C1.52296 5.57129 2.77852 5.57129 4.06239 5.57129C4.06239 9.37708 4.06239 13.178 4.06239 16.9996Z" fill="white" fill-opacity="0.55"/>
<path d="M2.16193 3.96531C0.623259 3.97018 -0.366414 2.67317 0.128422 1.30187C0.498935 0.27522 1.73726 -0.247238 2.94235 0.114464C3.98126 0.426234 4.55487 1.45897 4.27791 2.51972C4.0465 3.40388 3.22915 3.96288 2.16193 3.96531Z" fill="white" fill-opacity="0.55"/>
</svg>
