<svg width="19" height="15" viewBox="0 0 19 15" fill="none" xmlns="http://www.w3.org/2000/svg">
<path d="M0.144611 13.325C2.16525 13.4598 3.99568 12.9637 5.68541 11.7425C4.81514 11.6878 4.06994 11.45 3.41463 10.9742C2.76323 10.501 2.30595 9.88916 2.03236 9.10304C2.57042 9.18826 3.08112 9.18826 3.58921 9.08396C3.62829 9.05343 3.62829 9.0229 3.58921 8.99237C1.65586 8.49245 0.61492 6.79681 0.66573 5.28435C1.13734 5.51459 1.62068 5.67995 2.13789 5.72447C2.29423 5.75882 2.31116 5.755 2.33331 5.67487C0.711327 4.62161 0.177181 2.26323 1.21551 0.722778C1.34188 0.780021 1.3992 0.903409 1.48649 0.997541C3.4446 3.09006 5.85998 4.30232 8.74959 4.60253C8.92156 4.62034 9.13522 4.71192 9.25507 4.60762C9.37363 4.50585 9.24335 4.30487 9.23162 4.14713C9.10395 2.53036 9.94425 1.07895 11.4203 0.383141C12.8873 -0.308853 14.6734 -0.0480831 15.8537 1.04079C15.9775 1.15528 16.0817 1.18453 16.2498 1.14764C17.0263 0.975916 17.7571 0.689705 18.5023 0.283922C18.2027 1.17436 17.649 1.81038 16.8595 2.33955C17.1526 2.34464 17.378 2.27977 17.6034 2.23397C17.8314 2.18818 18.0542 2.12203 18.2769 2.05334C18.5049 1.98338 18.7303 1.89942 19 1.80656C18.802 2.1462 18.5623 2.4057 18.3252 2.66393C18.0021 3.01628 17.6451 3.33429 17.2529 3.6116C17.1201 3.70446 17.0862 3.80368 17.0875 3.95633C17.107 7.13391 15.9515 9.84719 13.6364 12.0707C12.0274 13.615 10.0719 14.5194 7.84414 14.8527C5.04964 15.2699 2.42841 14.8069 0 13.3746C0.0104224 13.2525 0.089893 13.3237 0.144611 13.325Z" fill="white" fill-opacity="0.55"/>
</svg>
