<svg width="9" height="18" viewBox="0 0 9 18" fill="none" xmlns="http://www.w3.org/2000/svg">
<path d="M7.05027 2.85102C6.9292 2.84608 6.81068 2.88563 6.68833 2.87821C6.66284 2.89799 6.63226 2.89305 6.60294 2.89428C6.58255 2.89181 6.56344 2.89552 6.54814 2.91159C6.53667 2.91282 6.5252 2.91406 6.51246 2.9153C6.4908 2.93507 6.45511 2.92519 6.43472 2.94867C6.42325 2.94867 6.41178 2.94991 6.39904 2.95114C6.37865 2.97216 6.34169 2.9598 6.32257 2.98699C6.30345 3.008 6.2665 2.99688 6.24865 3.02284C6.23209 3.04138 6.20023 3.03643 6.18621 3.05992C6.17729 3.06734 6.16709 3.07228 6.1569 3.07352C6.1365 3.07352 6.12503 3.08464 6.11484 3.09947C6.09955 3.1106 6.08425 3.11925 6.07278 3.13285C6.06004 3.14397 6.04729 3.15757 6.03455 3.1687V3.16993C6.02181 3.18229 6.01034 3.19465 5.99632 3.20578C5.98485 3.21814 5.9721 3.2305 5.95936 3.24286C5.95044 3.25646 5.93132 3.25522 5.92113 3.26758C5.90966 3.27994 5.89691 3.29231 5.88417 3.30467C5.8727 3.31703 5.85868 3.32939 5.84721 3.34175V3.33928C5.83574 3.35164 5.82172 3.36276 5.81025 3.37636C5.78604 3.3949 5.8077 3.42951 5.78476 3.44805C5.76947 3.45918 5.76182 3.47525 5.76182 3.49255C5.76055 3.50491 5.75545 3.51357 5.7478 3.52222L5.74653 3.52098C5.73251 3.53334 5.72486 3.54818 5.72359 3.56548C5.72232 3.57661 5.71722 3.5865 5.71085 3.59515C5.70957 3.60257 5.7083 3.60998 5.70702 3.6174C5.69683 3.63223 5.68281 3.64212 5.67261 3.65695C5.67261 3.68044 5.67134 3.70393 5.67006 3.72741C5.6535 3.74101 5.64967 3.75955 5.65222 3.78056C5.65095 3.8127 5.65859 3.84608 5.63438 3.87451C5.59615 3.91777 5.62164 3.96969 5.61526 4.01789C5.60889 4.07475 5.63056 4.13532 5.59742 4.19095C5.59615 4.20207 5.59615 4.21443 5.59487 4.22556C5.57448 4.24533 5.57831 4.27129 5.57831 4.29478C5.57831 4.9907 5.57831 5.68786 5.57831 6.38378C5.57831 6.40726 5.57448 6.43322 5.59742 6.45053C5.60889 6.46412 5.62164 6.47648 5.63565 6.48761C5.65859 6.5148 5.693 6.50615 5.72232 6.50615C6.76225 6.50615 7.80345 6.50615 8.84339 6.50615C8.87652 6.50615 8.91093 6.49997 8.94152 6.51851C8.9772 6.56548 8.95554 6.61987 8.96063 6.67055C8.96191 6.74101 8.96063 6.81146 8.96063 6.88192C8.96063 6.90664 8.96063 6.93013 8.94279 6.95114C8.94152 7.11184 8.94152 7.27253 8.94024 7.43322C8.91348 7.49255 8.94024 7.55683 8.92367 7.61616C8.88544 7.6483 8.90201 7.69404 8.89819 7.73606C8.89946 7.79045 8.89946 7.84484 8.89819 7.89923C8.89946 7.94867 8.89946 7.99812 8.89819 8.04756C8.89946 8.1279 8.89819 8.20702 8.89819 8.28736C8.89819 8.31332 8.89946 8.33928 8.88034 8.36153C8.88162 8.39737 8.88034 8.43322 8.87907 8.46907C8.85995 8.48514 8.86123 8.50862 8.86123 8.52964C8.86123 8.6038 8.86123 8.67797 8.86123 8.7509C8.8625 8.80652 8.8625 8.86338 8.86123 8.91901C8.8574 8.96845 8.87525 9.02036 8.84466 9.0661C8.84339 9.10195 8.84211 9.13779 8.84084 9.17488C8.8077 9.21814 8.82809 9.26635 8.823 9.31332C8.82427 9.3368 8.823 9.36153 8.823 9.38501C8.82172 9.41962 8.83319 9.45794 8.80388 9.48884C8.61781 9.48884 8.43302 9.49008 8.24695 9.49008C7.37652 9.49008 6.50609 9.49132 5.63565 9.49132C5.62164 9.50244 5.60889 9.5148 5.59742 9.52716C5.56684 9.55312 5.57831 9.58773 5.57831 9.61863C5.57831 11.1007 5.57831 12.584 5.57831 14.0661C5.57831 14.2948 5.57831 14.5235 5.57831 14.7521C5.57831 15.0809 5.57958 15.4097 5.57831 15.7373C5.57831 16.3368 5.57958 16.9351 5.57831 17.5346C5.57958 17.6644 5.57831 17.7929 5.57831 17.9227C5.57831 17.9487 5.58213 17.9759 5.55919 17.9969C5.54517 17.9981 5.52988 17.9994 5.51586 17.9994C4.47593 17.9994 3.43599 17.9994 2.39479 17.9994C2.38077 17.9994 2.36548 17.9981 2.35146 17.9981C2.32979 17.9771 2.33234 17.9499 2.33234 17.924C2.33234 16.8671 2.33107 15.8115 2.33234 14.7546C2.33107 13.055 2.33234 11.3553 2.33107 9.65572C2.33107 9.62481 2.34126 9.5902 2.3145 9.56301C2.30685 9.51233 2.28136 9.48884 2.22274 9.49008C1.51289 9.49255 0.804304 9.49132 0.0944487 9.49132C0.0689601 9.49132 0.044746 9.49008 0.0192575 9.48884C-0.00240774 9.46783 0.000141113 9.44064 0.000141113 9.41468C0.000141113 8.47401 0.000141113 7.53334 0.000141113 6.59391C0.000141113 6.56919 -0.00240774 6.54447 0.0141598 6.52346C0.0421972 6.49997 0.0778811 6.50615 0.109742 6.50615C0.805579 6.50615 1.50269 6.50615 2.19853 6.50615C2.22911 6.50615 2.26225 6.5148 2.28646 6.48761C2.30048 6.47896 2.29921 6.46041 2.31068 6.45053C2.33999 6.42704 2.32979 6.3949 2.32979 6.36524C2.32979 5.55312 2.32979 4.74101 2.32979 3.92889C2.32979 3.90046 2.32979 3.87203 2.32979 3.8436C2.32979 3.80528 2.32852 3.76697 2.32979 3.72741C2.33362 3.68168 2.31705 3.6347 2.34636 3.59268C2.35018 3.5457 2.35146 3.4975 2.35273 3.44929C2.37822 3.42457 2.3693 3.39367 2.37057 3.364C2.37057 3.33062 2.3642 3.29478 2.38714 3.26511C2.38842 3.25769 2.38969 3.25028 2.39097 3.24163C2.41773 3.21814 2.40753 3.186 2.40881 3.15634C2.40881 3.12296 2.40244 3.08711 2.42537 3.05745C2.42665 3.04632 2.42792 3.03396 2.4292 3.02284C2.44322 3.01048 2.44831 2.99317 2.44704 2.97339C2.44704 2.95238 2.44704 2.93013 2.46233 2.91282C2.46361 2.9017 2.46488 2.88934 2.46488 2.87821C2.48782 2.85844 2.48272 2.83124 2.484 2.80652C2.484 2.78427 2.484 2.76202 2.50057 2.74224L2.50184 2.74348C2.52988 2.72123 2.51968 2.69033 2.52223 2.6619C2.52096 2.63841 2.52223 2.61616 2.5388 2.59638L2.54007 2.59762C2.55664 2.58526 2.56174 2.56795 2.56046 2.54818C2.56046 2.52716 2.56046 2.50491 2.57703 2.48761L2.57831 2.48884C2.5885 2.47896 2.59742 2.4703 2.59997 2.45547C2.59997 2.44435 2.60507 2.43446 2.61144 2.4258C2.61272 2.41468 2.61399 2.40355 2.61526 2.39119C2.62801 2.37883 2.63693 2.364 2.63693 2.34546C2.6382 2.33433 2.6433 2.32444 2.64967 2.31579C2.65095 2.3059 2.65222 2.29478 2.6535 2.28242C2.66369 2.26758 2.67771 2.2577 2.68791 2.24286C2.68791 2.23174 2.68918 2.22061 2.69046 2.20949C2.71212 2.18847 2.69173 2.15634 2.71339 2.13532L2.71467 2.13656C2.72614 2.12543 2.73506 2.11307 2.73506 2.09577C2.73633 2.07599 2.73506 2.05498 2.75163 2.03891C2.77839 2.0216 2.76692 1.98452 2.78859 1.96474C2.81662 1.94867 2.80388 1.91159 2.82682 1.89305C2.84084 1.88192 2.84976 1.86709 2.85995 1.85349C2.87525 1.84237 2.88799 1.83124 2.88672 1.81147C2.88799 1.80034 2.89309 1.79045 2.90074 1.7818C2.90201 1.77067 2.90328 1.75955 2.90328 1.74842C2.91093 1.73359 2.93132 1.73483 2.93897 1.72123L2.94024 1.72247C2.95426 1.71134 2.96191 1.69651 2.96318 1.67797C2.96446 1.66684 2.96828 1.65695 2.9772 1.64954C2.98867 1.63718 3.00269 1.62481 3.01416 1.61245L3.01543 1.61369C3.0269 1.60133 3.04092 1.5902 3.05239 1.57537C3.05367 1.56425 3.05367 1.55312 3.05494 1.542C3.06514 1.52716 3.07916 1.51604 3.09063 1.50368C3.10464 1.49379 3.10209 1.47525 3.11229 1.46412C3.12631 1.45423 3.13905 1.44187 3.13778 1.4221C3.13905 1.41097 3.14415 1.40108 3.15307 1.39367C3.17346 1.36771 3.1964 1.34546 3.22699 1.33186L3.22826 1.3331C3.24101 1.32074 3.25375 1.30961 3.26522 1.29601C3.26522 1.28489 3.2665 1.27376 3.26777 1.26264C3.27669 1.24781 3.29071 1.23668 3.30345 1.22432C3.3162 1.21196 3.32894 1.1996 3.34169 1.18847C3.35443 1.17611 3.36718 1.16499 3.37865 1.15139H3.37992C3.39266 1.13903 3.40541 1.12667 3.41688 1.11431C3.42835 1.10195 3.44109 1.08959 3.45384 1.07723C3.46658 1.06857 3.46658 1.05003 3.47933 1.04014C3.49207 1.02778 3.50481 1.01542 3.51756 1.0043C3.5303 0.993171 3.54305 0.98081 3.55579 0.968449C3.56599 0.956088 3.58383 0.956088 3.59402 0.944963C3.60677 0.933839 3.61951 0.920242 3.63226 0.909117C3.645 0.896756 3.65647 0.884395 3.67049 0.87327C3.67431 0.863381 3.68451 0.859673 3.69598 0.857201C3.71509 0.855965 3.73039 0.849784 3.74186 0.834951C3.75588 0.823826 3.76735 0.811465 3.78009 0.799104C3.79283 0.787979 3.80558 0.774382 3.81832 0.763258C3.83362 0.742244 3.86548 0.748424 3.87949 0.724939C3.89351 0.713814 3.90498 0.701453 3.91773 0.689092C3.92537 0.680439 3.93557 0.676731 3.94831 0.674259C3.96616 0.673023 3.98145 0.666842 3.99292 0.654481C4.03243 0.668078 4.02605 0.601329 4.06556 0.614926C4.07703 0.603801 4.09487 0.603801 4.10507 0.592677V0.590204C4.11909 0.57908 4.13056 0.565483 4.14458 0.55683C4.15605 0.555594 4.16752 0.554358 4.17899 0.554358C4.19428 0.544469 4.20447 0.529636 4.21977 0.519747C4.23124 0.519747 4.24271 0.518511 4.25418 0.517275C4.26947 0.509858 4.26692 0.491317 4.28221 0.4839C4.29368 0.482664 4.30515 0.482664 4.31662 0.481428C4.33064 0.471539 4.34339 0.457942 4.35613 0.445581L4.35486 0.444345C4.36378 0.436929 4.37397 0.431984 4.38544 0.430748C4.40838 0.433221 4.41858 0.415915 4.43132 0.403554C4.44152 0.397374 4.45171 0.396138 4.46318 0.394902C4.48485 0.396138 4.49377 0.377596 4.50779 0.366471C4.51798 0.360291 4.52945 0.359055 4.54092 0.357819C4.56769 0.356583 4.597 0.361527 4.61484 0.333097C4.62121 0.328153 4.62886 0.324444 4.63778 0.323208C4.65562 0.320736 4.67091 0.313319 4.68238 0.299722L4.68111 0.298486C4.69003 0.29107 4.70023 0.286125 4.71042 0.284889C4.72954 0.284889 4.74483 0.277473 4.75758 0.26264H4.7563C4.77414 0.24657 4.79708 0.247806 4.81875 0.24657C4.83914 0.247806 4.85698 0.242862 4.871 0.228029C4.88247 0.228029 4.89394 0.226793 4.90668 0.225557C4.92835 0.204543 4.96276 0.224321 4.98315 0.202071H4.98187C4.99844 0.188474 5.01756 0.186002 5.03795 0.186002C5.06599 0.18353 5.09785 0.193418 5.12079 0.166224L5.11951 0.164988C5.1399 0.148919 5.16284 0.148919 5.18706 0.148919C5.21637 0.146447 5.24823 0.156336 5.27117 0.129141H5.26989C5.29921 0.106892 5.33362 0.114308 5.36675 0.113072C5.38714 0.114308 5.40753 0.111836 5.42155 0.0945308C5.44194 0.0945308 5.46233 0.0932947 5.48272 0.0920586C5.50057 0.0772255 5.52351 0.0772255 5.54517 0.0772255C5.56556 0.0784616 5.5834 0.0747533 5.59742 0.0586841C5.62164 0.057448 5.64585 0.0562119 5.67134 0.0549758C5.70192 0.0327261 5.73761 0.0401427 5.77202 0.0389066C5.79878 0.0389066 5.82682 0.043851 5.84848 0.0216013C5.88544 0.0203652 5.9224 0.0191291 5.95936 0.017893C5.99504 -0.00682888 6.03455 0.00305987 6.07278 0.00182377C6.11229 0.000587679 6.1518 0.00182377 6.1913 0.00182377C6.51373 0.000587679 6.83616 0.000587679 7.15987 0.00182377C7.23124 0.00182377 7.30388 0.000587679 7.37525 0.00182377C7.43897 0.00182377 7.50141 0.000587679 7.56514 0.00182377C7.62758 0.00800424 7.69385 -0.0142454 7.75375 0.017893C7.79963 0.0203652 7.84424 0.0203652 7.89012 0.0216013C7.92198 0.0500314 7.96148 0.0364344 7.99717 0.0376705C8.03667 0.0401427 8.07618 0.0376705 8.11569 0.0389066C8.13735 0.0376705 8.15902 0.0389066 8.18196 0.0389066C8.23166 0.0376705 8.28009 0.0376705 8.32979 0.0389066C8.36802 0.0401427 8.40881 0.0302539 8.44322 0.0549758C8.50057 0.0562119 8.55919 0.057448 8.61654 0.0586841C8.6535 0.0895864 8.69938 0.071045 8.74016 0.0759894C8.78731 0.0784616 8.83701 0.0636285 8.88162 0.0920586C8.91475 0.0932947 8.94661 0.0932947 8.97975 0.0945308C9.00142 0.115544 8.99887 0.142738 8.99887 0.168696C8.99887 1.02778 8.99887 1.8881 8.99887 2.74719C8.99887 2.77191 9.00014 2.79663 8.98485 2.81765C8.95681 2.84113 8.92113 2.83495 8.88927 2.83495C8.3043 2.83495 7.71807 2.83495 7.13311 2.83495C7.10507 2.83495 7.07448 2.82753 7.05027 2.85102Z" fill="white" fill-opacity="0.55"/>
</svg>
